<?xml version="1.0" encoding="UTF-8" standalone="no"?>
<svg
   xmlns:dc="http://purl.org/dc/elements/1.1/"
   xmlns:cc="http://creativecommons.org/ns#"
   xmlns:rdf="http://www.w3.org/1999/02/22-rdf-syntax-ns#"
   xmlns:svg="http://www.w3.org/2000/svg"
   xmlns="http://www.w3.org/2000/svg"
   xmlns:xlink="http://www.w3.org/1999/xlink"
   width="153.03682mm"
   height="127.424mm"
   viewBox="0 0 542.25644 451.50234"
   id="svg4641"
   version="1.1">
  <defs
     id="defs4643">
    <linearGradient
       xlink:href="#linearGradient4551"
       id="linearGradient4597"
       gradientUnits="userSpaceOnUse"
       gradientTransform="translate(-406.56662,-1046.7044)"
       x1="532.10162"
       y1="1317.5684"
       x2="535.48004"
       y2="1683.2827" />
    <linearGradient
       id="linearGradient4551">
      <stop
         id="stop4555"
         offset="0"
         style="stop-color:#fef460;stop-opacity:1" />
      <stop
         id="stop4553"
         offset="1"
         style="stop-color:#f80c78;stop-opacity:1" />
    </linearGradient>
    <filter
       style="color-interpolation-filters:sRGB"
       id="filter4593"
       x="-0.20366807"
       width="1.4073362"
       y="-0.20920619"
       height="1.4184124">
      <feGaussianBlur
         stdDeviation="32.638931"
         id="feGaussianBlur4595" />
    </filter>
    <linearGradient
       xlink:href="#linearGradient4551"
       id="linearGradient5213"
       gradientUnits="userSpaceOnUse"
       gradientTransform="translate(-406.56662,-1046.7044)"
       x1="532.10162"
       y1="1317.5684"
       x2="535.48004"
       y2="1683.2827" />
  </defs>
  <metadata
     id="metadata4646">
    <rdf:RDF>
      <cc:Work
         rdf:about="">
        <dc:format>image/svg+xml</dc:format>
        <dc:type
           rdf:resource="http://purl.org/dc/dcmitype/StillImage" />
        <dc:title></dc:title>
      </cc:Work>
    </rdf:RDF>
  </metadata>
  <g
     id="layer1"
     transform="translate(145.57266,-192.80533)">
    <path
       id="path4343"
       d="M 125.06737,269.9981 A 192.30692,192.30692 0 0 0 -49.493132,382.1036 l 349.089802,0 A 192.30692,192.30692 0 0 0 125.06737,269.9981 Z M -51.512732,386.2833 a 192.30692,192.30692 0 0 0 -8.5742,25.0508 l 370.212902,0 a 192.30692,192.30692 0 0 0 -8.6582,-25.0508 l -352.980502,0 z m -10.2226,31.3183 a 192.30692,192.30692 0 0 0 -3.9746,22.70709 l 381.527302,0 a 192.30692,192.30692 0 0 0 -4.0703,-22.70709 l -373.482402,0 z m -4.7266,31.06249 a 192.30692,192.30692 0 0 0 -0.7773,13.6407 192.30692,192.30692 0 0 0 0.332,6.6425 l 384.044902,0 a 192.30692,192.30692 0 0 0 0.2363,-6.6425 192.30692,192.30692 0 0 0 -0.789,-13.6407 l -383.046902,0 z m 0.078,30.7285 a 192.30692,192.30692 0 0 0 2.6621,19.0411 l 377.375002,0 a 192.30692,192.30692 0 0 0 2.8145,-19.0411 l -382.851602,0 z m 5.7168,31.5762 a 192.30692,192.30692 0 0 0 5.1895,16.4395 l 361.044902,0 a 192.30692,192.30692 0 0 0 5.2812,-16.4395 l -371.515602,0 z m 11.2578,31.0625 a 192.30692,192.30692 0 0 0 7.252001,14.0156 l 334.347601,0 a 192.30692,192.30692 0 0 0 7.3574,-14.0156 l -348.957002,0 z m 17.732401,30.7285 a 192.30692,192.30692 0 0 0 9.8907,12.6973 l 293.482401,0 a 192.30692,192.30692 0 0 0 9.9805,-12.6973 l -313.353601,0 z m 27.9081998,31.4981 a 192.30692,192.30692 0 0 0 12.3145,10.1719 l 232.6367012,0 a 192.30692,192.30692 0 0 0 12.4844,-10.1719 l -257.4356012,0 z m 45.9883002,31.0625 a 192.30692,192.30692 0 0 0 22.8047,9.1094 l 119.712901,0 a 192.30692,192.30692 0 0 0 22.6055,-9.1094 l -165.123101,0 z"
       style="opacity:1;fill:url(#linearGradient5213);fill-opacity:1;stroke:none;stroke-width:1.39999998;stroke-linejoin:miter;stroke-miterlimit:4;stroke-dasharray:none" />
    <path
       style="opacity:0.64800002;fill:url(#linearGradient4597);fill-opacity:1;stroke:none;stroke-width:1.39999998;stroke-linejoin:miter;stroke-miterlimit:4;stroke-dasharray:none;filter:url(#filter4593)"
       d="M 125.06737,269.9981 A 192.30692,192.30692 0 0 0 -49.493132,382.1036 l 349.089802,0 A 192.30692,192.30692 0 0 0 125.06737,269.9981 Z M -51.512732,386.2833 a 192.30692,192.30692 0 0 0 -8.5742,25.0508 l 370.212902,0 a 192.30692,192.30692 0 0 0 -8.6582,-25.0508 l -352.980502,0 z m -10.2226,31.3183 a 192.30692,192.30692 0 0 0 -3.9746,22.70709 l 381.527302,0 a 192.30692,192.30692 0 0 0 -4.0703,-22.70709 l -373.482402,0 z m -4.7266,31.06249 a 192.30692,192.30692 0 0 0 -0.7773,13.6407 192.30692,192.30692 0 0 0 0.332,6.6425 l 384.044902,0 a 192.30692,192.30692 0 0 0 0.2363,-6.6425 192.30692,192.30692 0 0 0 -0.789,-13.6407 l -383.046902,0 z m 0.078,30.7285 a 192.30692,192.30692 0 0 0 2.6621,19.0411 l 377.375002,0 a 192.30692,192.30692 0 0 0 2.8145,-19.0411 l -382.851602,0 z m 5.7168,31.5762 a 192.30692,192.30692 0 0 0 5.1895,16.4395 l 361.044902,0 a 192.30692,192.30692 0 0 0 5.2812,-16.4395 l -371.515602,0 z m 11.2578,31.0625 a 192.30692,192.30692 0 0 0 7.252001,14.0156 l 334.347601,0 a 192.30692,192.30692 0 0 0 7.3574,-14.0156 l -348.957002,0 z m 17.732401,30.7285 a 192.30692,192.30692 0 0 0 9.8907,12.6973 l 293.482401,0 a 192.30692,192.30692 0 0 0 9.9805,-12.6973 l -313.353601,0 z m 27.9081998,31.4981 a 192.30692,192.30692 0 0 0 12.3145,10.1719 l 232.6367012,0 a 192.30692,192.30692 0 0 0 12.4844,-10.1719 l -257.4356012,0 z m 45.9883002,31.0625 a 192.30692,192.30692 0 0 0 22.8047,9.1094 l 119.712901,0 a 192.30692,192.30692 0 0 0 22.6055,-9.1094 l -165.123101,0 z"
       id="path4559" />
  </g>
</svg>
